<svg width="304" height="304" viewBox="0 0 304 304" fill="none" xmlns="http://www.w3.org/2000/svg">
<g clip-path="url(#clip0_117_5816)">
<rect width="304" height="304" fill="white"/>
<rect x="0.5" y="0.5" width="303" height="303" stroke="#C9AB6A" stroke-opacity="0.04"/>
<path d="M85.5378 197.302C95.9173 242.129 147.202 268.542 192.029 258.163C236.856 247.783 264.782 203.029 254.402 158.202C244.023 113.375 199.269 85.4495 154.442 95.8289C202.876 84.6143 249.718 108.256 260.933 156.69C272.148 205.124 241.975 253.479 193.541 264.693C145.107 275.908 96.7524 245.736 85.5378 197.302Z" fill="#C9AC6A"/>
<path d="M85.5378 197.302C95.9173 242.129 147.202 268.542 192.029 258.163C236.856 247.783 264.782 203.029 254.402 158.202C244.023 113.375 199.269 85.4495 154.442 95.8289C202.876 84.6143 249.718 108.256 260.933 156.69C272.148 205.124 241.975 253.479 193.541 264.693C145.107 275.908 96.7524 245.736 85.5378 197.302Z" fill="url(#paint0_linear_117_5816)"/>
<path d="M172.343 178.498L165.378 163.463L127.103 70.4564L57.9287 224.926L41 224.634L124.009 36H134.554L217 224.926L172.343 178.498Z" fill="#C9AC6A"/>
<path d="M172.343 178.498L165.378 163.463L127.103 70.4564L57.9287 224.926L41 224.634L124.009 36H134.554L217 224.926L172.343 178.498Z" fill="url(#paint1_linear_117_5816)"/>
<path d="M138.486 96.5679L87.5539 225H68.4362L130.897 79.0511L138.486 96.5679Z" fill="#C9AC6A"/>
<path d="M138.486 96.5679L87.5539 225H68.4362L130.897 79.0511L138.486 96.5679Z" fill="url(#paint2_linear_117_5816)"/>
<path d="M211.168 217.777C184.46 189.458 163.741 171.68 131.5 180.323C99.26 188.966 87.408 224.926 87.408 224.926C87.408 224.926 95.1037 181.853 129.938 172.515C164.773 163.177 195.874 182.835 211.168 217.777Z" fill="#C9AC6A"/>
<path d="M211.168 217.777C184.46 189.458 163.741 171.68 131.5 180.323C99.26 188.966 87.408 224.926 87.408 224.926C87.408 224.926 95.1037 181.853 129.938 172.515C164.773 163.177 195.874 182.835 211.168 217.777Z" fill="url(#paint3_linear_117_5816)"/>
</g>
<defs>
<linearGradient id="paint0_linear_117_5816" x1="169.5" y1="174" x2="86.1185" y2="176.293" gradientUnits="userSpaceOnUse">
<stop stop-color="#C9AB6A"/>
<stop offset="1" stop-color="#E6CC93"/>
</linearGradient>
<linearGradient id="paint1_linear_117_5816" x1="169.5" y1="174" x2="86.1185" y2="176.293" gradientUnits="userSpaceOnUse">
<stop stop-color="#C9AB6A"/>
<stop offset="1" stop-color="#E6CC93"/>
</linearGradient>
<linearGradient id="paint2_linear_117_5816" x1="169.5" y1="174" x2="86.1185" y2="176.293" gradientUnits="userSpaceOnUse">
<stop stop-color="#C9AB6A"/>
<stop offset="1" stop-color="#E6CC93"/>
</linearGradient>
<linearGradient id="paint3_linear_117_5816" x1="169.5" y1="174" x2="86.1185" y2="176.293" gradientUnits="userSpaceOnUse">
<stop stop-color="#C9AB6A"/>
<stop offset="1" stop-color="#E6CC93"/>
</linearGradient>
<clipPath id="clip0_117_5816">
<rect width="304" height="304" fill="white"/>
</clipPath>
</defs>
</svg>
